<svg width="64" height="64" viewBox="0 0 64 64" fill="none" xmlns="http://www.w3.org/2000/svg">
<path d="M58.8457 47.4993C59.3246 47.7759 59.9385 47.6123 60.1999 47.125C63.7017 40.5964 64.8345 33.0435 63.3851 25.7571C61.8706 18.1428 57.6395 11.3388 51.4804 6.61269C45.3212 1.8866 37.6539 -0.43924 29.9071 0.0685144C22.1603 0.576269 14.8622 3.88298 9.37258 9.37258C3.88299 14.8622 0.57627 22.1603 0.0685146 29.9071C-0.439241 37.6539 1.88659 45.3212 6.61269 51.4804C11.3388 57.6395 18.1428 61.8706 25.7571 63.3851C33.0435 64.8345 40.5964 63.7017 47.125 60.1999C47.6123 59.9385 47.7758 59.3246 47.4993 58.8457V58.8457C47.2228 58.3667 46.6111 58.2043 46.1232 58.4647C40.0158 61.7241 32.9577 62.7756 26.1478 61.421C19.01 60.0012 12.6318 56.035 8.20147 50.2613C3.77113 44.4875 1.59085 37.3001 2.06683 30.0381C2.54281 22.776 5.64259 15.9347 10.7886 10.7886C15.9347 5.64259 22.776 2.54281 30.0381 2.06683C37.3001 1.59085 44.4875 3.77114 50.2613 8.20147C56.035 12.6318 60.0012 19.01 61.421 26.1478C62.7756 32.9577 61.7241 40.0158 58.4647 46.1232C58.2043 46.6111 58.3667 47.2228 58.8457 47.4993V47.4993Z" fill="white"/>
<circle cx="54.1668" cy="53.4998" r="2.83333" fill="url(#paint0_linear_104_89)"/>
<path d="M28.835 27.2355C28.2709 26.2013 27.4952 25.4138 26.5079 24.8731C25.5206 24.3325 24.3688 24.0622 23.0525 24.0622C21.5951 24.0622 20.3022 24.3913 19.1739 25.0494C18.0456 25.7076 17.1641 26.6479 16.5294 27.8702C15.8947 29.0926 15.5774 30.5029 15.5774 32.1014C15.5774 33.7468 15.8947 35.1807 16.5294 36.4031C17.1876 37.6254 18.0926 38.5657 19.2444 39.2238C20.3962 39.882 21.7361 40.2111 23.264 40.2111C25.1445 40.2111 26.6842 39.7175 27.883 38.7302C29.0819 37.7194 29.8693 36.3208 30.2454 34.5343H21.7831V30.7615H35.1113V35.0632C34.7822 36.7792 34.077 38.3659 32.9957 39.8233C31.9144 41.2807 30.5158 42.456 28.7998 43.3492C27.1073 44.219 25.2033 44.6538 23.0877 44.6538C20.7136 44.6538 18.5627 44.1249 16.6352 43.0671C14.7312 41.9859 13.2267 40.4932 12.1219 38.5892C11.0406 36.6851 10.5 34.5225 10.5 32.1014C10.5 29.6802 11.0406 27.5176 12.1219 25.6136C13.2267 23.6861 14.7312 22.1934 16.6352 21.1356C18.5627 20.0543 20.7018 19.5137 23.0525 19.5137C25.8262 19.5137 28.2356 20.1954 30.2807 21.5587C32.3258 22.8986 33.7361 24.7909 34.5119 27.2355H28.835Z" fill="url(#paint1_linear_104_89)"/>
<path d="M44.8427 44.5857C43.1267 44.5857 41.5753 44.2919 40.1884 43.7042C38.8251 43.1165 37.7438 42.2703 36.9445 41.1655C36.1453 40.0607 35.734 38.7561 35.7104 37.2517H40.9994C41.0699 38.2624 41.4225 39.0617 42.0572 39.6493C42.7154 40.237 43.6086 40.5308 44.7369 40.5308C45.8887 40.5308 46.7937 40.2605 47.4519 39.7198C48.1101 39.1557 48.4392 38.427 48.4392 37.5337C48.4392 36.805 48.2159 36.2056 47.7693 35.7355C47.3226 35.2654 46.7585 34.901 46.0768 34.6424C45.4186 34.3604 44.5019 34.0548 43.3265 33.7257C41.7281 33.2556 40.4235 32.7972 39.4127 32.3506C38.4254 31.8804 37.5675 31.187 36.8388 30.2702C36.1336 29.33 35.781 28.0841 35.781 26.5327C35.781 25.0753 36.1453 23.806 36.874 22.7247C37.6027 21.6434 38.6253 20.8206 39.9416 20.2565C41.258 19.6688 42.7624 19.375 44.4549 19.375C46.9936 19.375 49.0504 19.9979 50.6253 21.2438C52.2237 22.4661 53.1052 24.1821 53.2698 26.3917H47.8398C47.7928 25.5454 47.4284 24.852 46.7467 24.3114C46.0886 23.7472 45.2071 23.4651 44.1023 23.4651C43.1385 23.4651 42.3628 23.7119 41.7751 24.2056C41.211 24.6992 40.9289 25.4162 40.9289 26.3564C40.9289 27.0146 41.1404 27.567 41.5636 28.0136C42.0102 28.4367 42.5508 28.7893 43.1855 29.0714C43.8437 29.33 44.7604 29.6356 45.9358 29.9882C47.5342 30.4583 48.8388 30.9284 49.8496 31.3986C50.8604 31.8687 51.7301 32.5739 52.4588 33.5141C53.1875 34.4544 53.5519 35.6885 53.5519 37.2164C53.5519 38.5328 53.211 39.7551 52.5293 40.8834C51.8476 42.0117 50.8486 42.9167 49.5322 43.5984C48.2159 44.2566 46.6527 44.5857 44.8427 44.5857Z" fill="white"/>
<defs>
<linearGradient id="paint0_linear_104_89" x1="53.1877" y1="52.4998" x2="59.4377" y2="55.7498" gradientUnits="userSpaceOnUse">
<stop stop-color="#FF8801"/>
<stop offset="1" stop-color="#FE3B3A"/>
</linearGradient>
<linearGradient id="paint1_linear_104_89" x1="16.8412" y1="21.5786" x2="35.1598" y2="50.3648" gradientUnits="userSpaceOnUse">
<stop stop-color="#FF8801"/>
<stop offset="1" stop-color="#FE3B3A"/>
</linearGradient>
</defs>
</svg>
